<svg version="1.1" xmlns="http://www.w3.org/2000/svg" width="512" height="512" viewBox="0 0 512 512"><path d="M156.377 69.54c-67.459 28.144-122.352 83.781-145.543 157.252v0.474c-5.040 16.121-8.743 32.159-10.396 48.313 1.788 4.745 8.293 16.113 10.396 12.315 1.591-16.274 5.024-32.071 9.876-48.313v-0.474c22.209-73.622 74.439-129.762 138.786-158.2 1.325-2.956-0.394-9.757-3.119-11.368zM356.499 69.54c-2.724 1.61-4.443 8.412-3.119 11.367 64.346 28.438 116.577 84.578 138.786 158.2v0.474c4.853 16.242 8.286 32.038 9.876 48.313 2.103 3.798 8.608-7.57 10.396-12.315-1.652-16.154-5.356-32.191-10.396-48.313v-0.474c-23.192-73.472-78.084-129.108-145.543-157.252zM156.377 134.431c-42.572 24.931-76.424 65.701-92.004 117.466v0.947c-10.673 35.804-9.828 72.091-2.079 106.099 5.616 5.914 11.101 9.281 17.673 14.683 0.181-3.002 2.127-2.517 1.559-5.21s-1.67-7.138-6.237-24.63c-4.567-17.492-6.892-49.817 3.119-84.31v-0.947c13.655-46.601 42.523-82.693 79.009-106.099 1.511-1.664 1.459-13.131 0.52-17.052-0.131-0.547-1.56-0.947-1.56-0.947zM356.499 134.431c0 0-1.428 0.4-1.56 0.947-0.94 3.921-0.991 15.387 0.52 17.052 36.486 23.405 65.354 59.498 79.009 106.099v0.947c10.011 34.493 7.686 66.818 3.119 84.31s-5.67 21.937-6.238 24.63c-0.567 2.693 1.378 2.209 1.56 5.211 6.572-5.403 12.058-8.769 17.673-14.683 7.749-34.007 8.594-70.294-2.079-106.099v-0.947c-15.58-51.764-49.432-92.536-92.004-117.466zM164.174 191.743c-23.324 18.469-39.502 41.958-48.861 72.942l-0.52 0.474c-16.588 55.448-0.376 112.846 37.425 151.095l51.98 16.105 2.079-3.316c-60.845-25.517-90.757-94.466-73.292-155.358 8.649-29.562 22.828-46.038 41.064-63.469 0.215-4.157-5.454-17.698-9.876-18.472zM348.702 191.743c-4.422 0.774-10.091 14.315-9.876 18.472 18.236 17.431 32.415 33.907 41.064 63.47 17.466 60.892-12.447 129.841-73.291 155.358l2.079 3.316 51.979-16.104c37.801-38.25 54.014-95.647 37.425-151.095l-0.52-0.474c-9.359-30.984-25.537-54.474-48.861-72.942zM193.803 230.583c-14.857 12.251-26.679 28.819-32.747 48.786v0.474c-16.28 54.091 13.56 111.423 67.054 127.886 9.163 2.82 18.422 4.104 27.549 4.263 0.514 0.009 1.046-0.002 1.56 0 9.127-0.159 18.387-1.443 27.549-4.263 53.493-16.462 83.334-73.796 67.054-127.886v-0.474c-6.068-19.968-17.89-36.535-32.747-48.786-6.106 5.696-12.592 10.37-19.752 14.209 13.646 9.689 24.349 23.857 29.628 41.208 12.435 41.267-10.601 85.014-51.46 97.572-6.781 2.084-13.537 3.139-20.272 3.316-0.512-0.003-1.046 0.014-1.56 0-6.735-0.176-13.491-1.231-20.272-3.316-40.858-12.56-63.895-56.306-51.46-97.572 5.279-17.351 15.982-31.519 29.629-41.208-7.16-3.839-13.645-8.514-19.752-14.209zM254.099 254.739c-22.154 1.521-42.485 16.009-49.38 38.366-8.865 29.022 7.775 59.847 36.906 68.68 4.202 1.274 8.281 1.298 12.475 1.421 2.194 0.224 3.159 0 4.678 0 4.1-0.136 8.367-0.175 12.475-1.421 29.13-8.832 45.771-39.659 36.906-68.68-6.896-22.357-27.227-36.844-49.38-38.365-1.646-0.25-4.351 0-4.678 0z"></path></svg>
