<?xml version="1.0" encoding="UTF-8"?>
<!DOCTYPE svg PUBLIC "-//W3C//DTD SVG 1.1//EN" "http://www.w3.org/Graphics/SVG/1.1/DTD/svg11.dtd">
<svg version="1.1" xmlns="http://www.w3.org/2000/svg" xmlns:xlink="http://www.w3.org/1999/xlink" x="0" y="0" width="512" height="512" viewBox="0, 0, 512, 512">
  <defs>
    <clipPath id="Clip_1">
      <path d="M-1.824,72.045 L513.824,72.045 L513.824,439.955 L-1.824,439.955 z M355.709,80.045 L355.709,86.714 C436.044,122.308 493.917,199.337 502.225,290.697 C504.168,287.146 506.03,283.546 507.824,279.904 C495.838,189.743 436.546,114.532 355.709,80.045 z M156.557,80.07 C74.997,114.889 15.379,191.168 4.176,282.427 C5.602,285.25 7.07,288.047 8.586,290.816 C16.905,198.859 75.437,121.406 156.557,86.083 L156.557,80.07 z M255.251,260.772 C226.216,260.772 202.68,284.309 202.68,313.342 C202.68,342.376 226.216,365.91 255.251,365.91 C284.284,365.91 307.821,342.376 307.821,313.342 C307.821,284.309 284.284,260.772 255.251,260.772 z M355.709,143.98 L355.709,156.699 C407.306,189.681 441.516,247.471 441.516,313.251 C441.516,335.165 437.708,356.188 430.737,375.705 C436.127,371.402 441.353,366.901 446.409,362.219 C450.377,346.641 452.489,330.322 452.489,313.509 C452.489,241.334 413.633,178.242 355.709,143.98 z M156.557,143.407 C98.095,177.538 58.809,240.932 58.809,313.509 C58.809,330.563 60.98,347.11 65.056,362.889 C70.305,367.715 75.731,372.354 81.336,376.774 C74.12,356.955 70.18,335.564 70.18,313.251 C70.18,247.231 104.643,189.265 156.557,156.345 L156.557,143.407 z M192.597,237.825 C170.963,255.861 157.188,283.005 157.188,313.373 C157.188,367.674 201.209,411.695 255.514,411.695 C309.815,411.695 353.836,367.674 353.836,313.373 C353.836,283.292 340.311,256.382 319.028,238.345 C313.478,242.874 307.421,246.801 300.97,250.061 C320.736,264.209 333.631,287.344 333.631,313.505 C333.631,356.574 298.716,391.489 255.644,391.489 C212.573,391.489 177.656,356.574 177.656,313.505 C177.656,287.164 190.73,263.889 210.729,249.769 C204.244,246.439 198.16,242.44 192.597,237.825 z M347.966,199.708 C345.735,205.018 343.037,210.078 339.958,214.872 C367.843,238.708 385.542,274.114 385.542,313.673 C385.542,366.123 354.45,411.285 309.706,431.818 C326.452,428.54 342.67,423.792 358.208,417.684 C385.24,391.128 402.012,354.166 402.012,313.281 C402.012,267.449 380.941,226.546 347.966,199.708 z M164.067,199.116 C130.67,225.943 109.285,267.111 109.285,313.281 C109.285,354.342 126.203,391.447 153.439,418.028 C168.927,424.053 185.083,428.738 201.762,431.955 C156.855,411.489 125.622,366.243 125.622,313.673 C125.622,273.777 143.617,238.097 171.914,214.258 C168.887,209.47 166.253,204.412 164.067,199.116 z"/>
    </clipPath>
    <filter id="Shadow_2">
      <feGaussianBlur in="SourceAlpha" stdDeviation="2.5"/>
      <feOffset dx="0" dy="2" result="offsetblur"/>
      <feFlood flood-color="#5C573E"/>
      <feComposite in2="offsetblur" operator="in"/>
    </filter>
    <clipPath id="Clip_3">
      <path d="M-1.824,72.045 L513.824,72.045 L513.824,439.955 L-1.824,439.955 z M355.709,80.045 L355.709,86.714 C436.044,122.308 493.917,199.337 502.225,290.697 C504.168,287.146 506.03,283.546 507.824,279.904 C495.838,189.743 436.546,114.532 355.709,80.045 z M156.557,80.07 C74.997,114.889 15.379,191.168 4.176,282.427 C5.602,285.25 7.07,288.047 8.586,290.816 C16.905,198.859 75.437,121.406 156.557,86.083 L156.557,80.07 z M255.251,260.772 C226.216,260.772 202.68,284.309 202.68,313.342 C202.68,342.376 226.216,365.91 255.251,365.91 C284.284,365.91 307.821,342.376 307.821,313.342 C307.821,284.309 284.284,260.772 255.251,260.772 z M355.709,143.98 L355.709,156.699 C407.306,189.681 441.516,247.471 441.516,313.251 C441.516,335.165 437.708,356.188 430.737,375.705 C436.127,371.402 441.353,366.901 446.409,362.219 C450.377,346.641 452.489,330.322 452.489,313.509 C452.489,241.334 413.633,178.242 355.709,143.98 z M156.557,143.407 C98.095,177.538 58.809,240.932 58.809,313.509 C58.809,330.563 60.98,347.11 65.056,362.889 C70.305,367.715 75.731,372.354 81.336,376.774 C74.12,356.955 70.18,335.564 70.18,313.251 C70.18,247.231 104.643,189.265 156.557,156.345 L156.557,143.407 z M192.597,237.825 C170.963,255.861 157.188,283.005 157.188,313.373 C157.188,367.674 201.209,411.695 255.514,411.695 C309.815,411.695 353.836,367.674 353.836,313.373 C353.836,283.292 340.311,256.382 319.028,238.345 C313.478,242.874 307.421,246.801 300.97,250.061 C320.736,264.209 333.631,287.344 333.631,313.505 C333.631,356.574 298.716,391.489 255.644,391.489 C212.573,391.489 177.656,356.574 177.656,313.505 C177.656,287.164 190.73,263.889 210.729,249.769 C204.244,246.439 198.16,242.44 192.597,237.825 z M347.966,199.708 C345.735,205.018 343.037,210.078 339.958,214.872 C367.843,238.708 385.542,274.114 385.542,313.673 C385.542,366.123 354.45,411.285 309.706,431.818 C326.452,428.54 342.67,423.792 358.208,417.684 C385.24,391.128 402.012,354.166 402.012,313.281 C402.012,267.449 380.941,226.546 347.966,199.708 z M164.067,199.116 C130.67,225.943 109.285,267.111 109.285,313.281 C109.285,354.342 126.203,391.447 153.439,418.028 C168.927,424.053 185.083,428.738 201.762,431.955 C156.855,411.489 125.622,366.243 125.622,313.673 C125.622,273.777 143.617,238.097 171.914,214.258 C168.887,209.47 166.253,204.412 164.067,199.116 z"/>
    </clipPath>
    <filter id="Shadow_4">
      <feGaussianBlur in="SourceAlpha" stdDeviation="2.5"/>
      <feOffset dx="0" dy="2" result="offsetblur"/>
      <feFlood flood-color="#5C573E"/>
      <feComposite in2="offsetblur" operator="in"/>
    </filter>
  </defs>
  <g id="Ultraschall" transform="translate(0, 0)">
    <g>
      <path d="M164.067,199.116 C166.253,204.412 168.887,209.47 171.914,214.258 C143.617,238.097 125.622,273.777 125.622,313.673 C125.622,366.243 156.855,411.489 201.762,431.955 C185.083,428.738 168.927,424.053 153.439,418.028 C126.203,391.447 109.285,354.342 109.285,313.281 C109.285,267.111 130.67,225.943 164.067,199.116 z M347.966,199.708 C380.941,226.546 402.012,267.449 402.012,313.281 C402.012,354.166 385.24,391.128 358.208,417.684 C342.67,423.792 326.452,428.54 309.706,431.818 C354.45,411.285 385.542,366.123 385.542,313.673 C385.542,274.114 367.843,238.708 339.958,214.872 C343.037,210.078 345.735,205.018 347.966,199.708 z M192.597,237.825 C198.16,242.44 204.244,246.439 210.729,249.769 C190.73,263.889 177.656,287.164 177.656,313.505 C177.656,356.574 212.573,391.489 255.644,391.489 C298.716,391.489 333.631,356.574 333.631,313.505 C333.631,287.344 320.736,264.209 300.97,250.061 C307.421,246.801 313.478,242.874 319.028,238.345 C340.311,256.382 353.836,283.292 353.836,313.373 C353.836,367.674 309.815,411.695 255.514,411.695 C201.209,411.695 157.188,367.674 157.188,313.373 C157.188,283.005 170.963,255.861 192.597,237.825 z M156.557,143.407 L156.557,156.345 C104.643,189.265 70.18,247.231 70.18,313.251 C70.18,335.564 74.12,356.955 81.336,376.774 C75.731,372.354 70.305,367.715 65.056,362.889 C60.98,347.11 58.809,330.563 58.809,313.509 C58.809,240.932 98.095,177.538 156.557,143.407 z M355.709,143.98 C413.633,178.242 452.489,241.334 452.489,313.509 C452.489,330.322 450.377,346.641 446.409,362.219 C441.353,366.901 436.127,371.402 430.737,375.705 C437.708,356.188 441.516,335.165 441.516,313.251 C441.516,247.471 407.306,189.681 355.709,156.699 L355.709,143.98 z M255.251,260.772 C284.284,260.772 307.821,284.309 307.821,313.342 C307.821,342.376 284.284,365.91 255.251,365.91 C226.216,365.91 202.68,342.376 202.68,313.342 C202.68,284.309 226.216,260.772 255.251,260.772 z M156.557,80.07 L156.557,86.083 C75.437,121.406 16.905,198.859 8.586,290.816 C7.07,288.047 5.602,285.25 4.176,282.427 C15.379,191.168 74.997,114.889 156.557,80.07 z M355.709,80.045 C436.546,114.532 495.838,189.743 507.824,279.904 C506.03,283.546 504.168,287.146 502.225,290.697 C493.917,199.337 436.044,122.308 355.709,86.714 L355.709,80.045 z" clip-path="url(#Clip_1)" filter="url(#Shadow_2)" fill="rgba(0,0,0,1)"/>
      <path d="M255.251,365.91 C284.284,365.91 307.821,342.376 307.821,313.342 C307.821,284.309 284.284,260.772 255.251,260.772 C226.216,260.772 202.68,284.309 202.68,313.342 C202.68,342.376 226.216,365.91 255.251,365.91 M156.557,86.083 L156.557,80.07 C74.997,114.889 15.379,191.168 4.176,282.427 C5.602,285.25 7.07,288.047 8.586,290.816 C16.905,198.859 75.437,121.406 156.557,86.083 M355.709,80.045 L355.709,86.714 C436.044,122.308 493.917,199.337 502.225,290.697 C504.168,287.146 506.03,283.546 507.824,279.904 C495.838,189.743 436.546,114.532 355.709,80.045 M347.966,199.708 C345.735,205.018 343.037,210.078 339.958,214.872 C367.843,238.708 385.542,274.114 385.542,313.673 C385.542,366.123 354.45,411.285 309.706,431.818 C326.452,428.54 342.67,423.792 358.208,417.684 C385.24,391.128 402.012,354.166 402.012,313.281 C402.012,267.449 380.941,226.546 347.966,199.708 M355.709,143.98 L355.709,156.699 C407.306,189.681 441.516,247.471 441.516,313.252 C441.516,335.165 437.708,356.188 430.737,375.705 C436.127,371.402 441.353,366.901 446.409,362.219 C450.377,346.641 452.489,330.322 452.489,313.509 C452.489,241.334 413.633,178.242 355.709,143.98 M156.557,156.345 L156.557,143.407 C98.095,177.538 58.809,240.932 58.809,313.509 C58.809,330.563 60.98,347.11 65.056,362.889 C70.305,367.715 75.731,372.354 81.336,376.774 C74.12,356.955 70.18,335.564 70.18,313.252 C70.18,247.231 104.643,189.265 156.557,156.345 M353.836,313.373 C353.836,283.292 340.311,256.382 319.028,238.345 C313.478,242.874 307.421,246.801 300.97,250.061 C320.736,264.209 333.631,287.344 333.631,313.505 C333.631,356.574 298.716,391.489 255.644,391.489 C212.573,391.489 177.656,356.574 177.656,313.505 C177.656,287.164 190.73,263.889 210.729,249.769 C204.244,246.439 198.16,242.44 192.597,237.825 C170.963,255.861 157.188,283.005 157.188,313.373 C157.188,367.674 201.209,411.695 255.514,411.695 C309.815,411.695 353.836,367.674 353.836,313.373 M125.622,313.673 C125.622,273.777 143.617,238.097 171.914,214.258 C168.887,209.47 166.253,204.412 164.067,199.116 C130.67,225.943 109.285,267.111 109.285,313.281 C109.285,354.342 126.203,391.447 153.439,418.028 C168.927,424.053 185.083,428.738 201.762,431.955 C156.855,411.489 125.622,366.243 125.622,313.673" fill="#FFFFFF"/>
    </g>
    <g display="none">
      <path d="M164.067,199.116 C166.253,204.412 168.887,209.47 171.914,214.258 C143.617,238.097 125.622,273.777 125.622,313.673 C125.622,366.243 156.855,411.489 201.762,431.955 C185.083,428.738 168.927,424.053 153.439,418.028 C126.203,391.447 109.285,354.342 109.285,313.281 C109.285,267.111 130.67,225.943 164.067,199.116 z M347.966,199.708 C380.941,226.546 402.012,267.449 402.012,313.281 C402.012,354.166 385.24,391.128 358.208,417.684 C342.67,423.792 326.452,428.54 309.706,431.818 C354.45,411.285 385.542,366.123 385.542,313.673 C385.542,274.114 367.843,238.708 339.958,214.872 C343.037,210.078 345.735,205.018 347.966,199.708 z M192.597,237.825 C198.16,242.44 204.244,246.439 210.729,249.769 C190.73,263.889 177.656,287.164 177.656,313.505 C177.656,356.574 212.573,391.489 255.644,391.489 C298.716,391.489 333.631,356.574 333.631,313.505 C333.631,287.344 320.736,264.209 300.97,250.061 C307.421,246.801 313.478,242.874 319.028,238.345 C340.311,256.382 353.836,283.292 353.836,313.373 C353.836,367.674 309.815,411.695 255.514,411.695 C201.209,411.695 157.188,367.674 157.188,313.373 C157.188,283.005 170.963,255.861 192.597,237.825 z M156.557,143.407 L156.557,156.345 C104.643,189.265 70.18,247.231 70.18,313.251 C70.18,335.564 74.12,356.955 81.336,376.774 C75.731,372.354 70.305,367.715 65.056,362.889 C60.98,347.11 58.809,330.563 58.809,313.509 C58.809,240.932 98.095,177.538 156.557,143.407 z M355.709,143.98 C413.633,178.242 452.489,241.334 452.489,313.509 C452.489,330.322 450.377,346.641 446.409,362.219 C441.353,366.901 436.127,371.402 430.737,375.705 C437.708,356.188 441.516,335.165 441.516,313.251 C441.516,247.471 407.306,189.681 355.709,156.699 L355.709,143.98 z M255.251,260.772 C284.284,260.772 307.821,284.309 307.821,313.342 C307.821,342.376 284.284,365.91 255.251,365.91 C226.216,365.91 202.68,342.376 202.68,313.342 C202.68,284.309 226.216,260.772 255.251,260.772 z M156.557,80.07 L156.557,86.083 C75.437,121.406 16.905,198.859 8.586,290.816 C7.07,288.047 5.602,285.25 4.176,282.427 C15.379,191.168 74.997,114.889 156.557,80.07 z M355.709,80.045 C436.546,114.532 495.838,189.743 507.824,279.904 C506.03,283.546 504.168,287.146 502.225,290.697 C493.917,199.337 436.044,122.308 355.709,86.714 L355.709,80.045 z" clip-path="url(#Clip_3)" filter="url(#Shadow_4)" fill="rgba(0,0,0,1)"/>
      <path d="M255.251,365.91 C284.284,365.91 307.821,342.376 307.821,313.342 C307.821,284.309 284.284,260.772 255.251,260.772 C226.216,260.772 202.68,284.309 202.68,313.342 C202.68,342.376 226.216,365.91 255.251,365.91 M156.557,86.083 L156.557,80.07 C74.997,114.889 15.379,191.168 4.176,282.427 C5.602,285.25 7.07,288.047 8.586,290.816 C16.905,198.859 75.437,121.406 156.557,86.083 M355.709,80.045 L355.709,86.714 C436.044,122.308 493.917,199.337 502.225,290.697 C504.168,287.146 506.03,283.546 507.824,279.904 C495.838,189.743 436.546,114.532 355.709,80.045 M347.966,199.708 C345.735,205.018 343.037,210.078 339.958,214.872 C367.843,238.708 385.542,274.114 385.542,313.673 C385.542,366.123 354.45,411.285 309.706,431.818 C326.452,428.54 342.67,423.792 358.208,417.684 C385.24,391.128 402.012,354.166 402.012,313.281 C402.012,267.449 380.941,226.546 347.966,199.708 M355.709,143.98 L355.709,156.699 C407.306,189.681 441.516,247.471 441.516,313.252 C441.516,335.165 437.708,356.188 430.737,375.705 C436.127,371.402 441.353,366.901 446.409,362.219 C450.377,346.641 452.489,330.322 452.489,313.509 C452.489,241.334 413.633,178.242 355.709,143.98 M156.557,156.345 L156.557,143.407 C98.095,177.538 58.809,240.932 58.809,313.509 C58.809,330.563 60.98,347.11 65.056,362.889 C70.305,367.715 75.731,372.354 81.336,376.774 C74.12,356.955 70.18,335.564 70.18,313.252 C70.18,247.231 104.643,189.265 156.557,156.345 M353.836,313.373 C353.836,283.292 340.311,256.382 319.028,238.345 C313.478,242.874 307.421,246.801 300.97,250.061 C320.736,264.209 333.631,287.344 333.631,313.505 C333.631,356.574 298.716,391.489 255.644,391.489 C212.573,391.489 177.656,356.574 177.656,313.505 C177.656,287.164 190.73,263.889 210.729,249.769 C204.244,246.439 198.16,242.44 192.597,237.825 C170.963,255.861 157.188,283.005 157.188,313.373 C157.188,367.674 201.209,411.695 255.514,411.695 C309.815,411.695 353.836,367.674 353.836,313.373 M125.622,313.673 C125.622,273.777 143.617,238.097 171.914,214.258 C168.887,209.47 166.253,204.412 164.067,199.116 C130.67,225.943 109.285,267.111 109.285,313.281 C109.285,354.342 126.203,391.447 153.439,418.028 C168.927,424.053 185.083,428.738 201.762,431.955 C156.855,411.489 125.622,366.243 125.622,313.673" fill="#000000"/>
    </g>
  </g>
</svg>
