<?xml version="1.0" encoding="utf-8"?>
<!-- Generator: Adobe Illustrator 19.1.0, SVG Export Plug-In . SVG Version: 6.00 Build 0)  -->
<svg version="1.1" xmlns="http://www.w3.org/2000/svg" xmlns:xlink="http://www.w3.org/1999/xlink" x="0px" y="0px" width="24px"
	 height="24px" viewBox="0 0 24 24" enable-background="new 0 0 24 24" xml:space="preserve">
<g id="Bounding_Boxes">
	<path fill="none" d="M0,0h24v24H0V0z"/>
</g>
<g id="Sharp">
	<path d="M12,4V1L8,5l4,4V6c3.31,0,6,2.69,6,6c0,1.01-0.25,1.97-0.7,2.8l1.46,1.46C19.54,15.03,20,13.57,20,12C20,7.58,16.42,4,12,4
		z M12,18c-3.31,0-6-2.69-6-6c0-1.01,0.25-1.97,0.7-2.8L5.24,7.74C4.46,8.97,4,10.43,4,12c0,4.42,3.58,8,8,8v3l4-4l-4-4V18z"/>
</g>
</svg>
