<?xml version="1.0" encoding="utf-8"?>
<!-- Generator: Adobe Illustrator 19.1.0, SVG Export Plug-In . SVG Version: 6.00 Build 0)  -->
<svg version="1.1" xmlns="http://www.w3.org/2000/svg" xmlns:xlink="http://www.w3.org/1999/xlink" x="0px" y="0px" width="24px"
	 height="24px" viewBox="0 0 24 24" enable-background="new 0 0 24 24" xml:space="preserve">
<g id="Bounding_Boxes">
	<g id="ui_x5F_spec_x5F_header_copy_3" display="none">
	</g>
	<path fill="none" d="M0,0h24v24H0V0z"/>
</g>
<g id="Sharp">
	<g id="ui_x5F_spec_x5F_header_copy_4" display="none">
	</g>
	<path d="M12,5c-3.87,0-7,3.13-7,7h2c0-2.76,2.24-5,5-5s5,2.24,5,5h2C19,8.13,15.87,5,12,5z M13,14.29c0.88-0.39,1.5-1.26,1.5-2.29
		c0-1.38-1.12-2.5-2.5-2.5S9.5,10.62,9.5,12c0,1.02,0.62,1.9,1.5,2.29v3.3L7.59,21L9,22.41l3-3l3,3L16.41,21L13,17.59V14.29z M12,1
		C5.93,1,1,5.93,1,12h2c0-4.97,4.03-9,9-9s9,4.03,9,9h2C23,5.93,18.07,1,12,1z"/>
</g>
</svg>
