<?xml version="1.0" encoding="utf-8"?>
<!-- Generator: Adobe Illustrator 19.1.0, SVG Export Plug-In . SVG Version: 6.00 Build 0)  -->
<svg version="1.1" xmlns="http://www.w3.org/2000/svg" xmlns:xlink="http://www.w3.org/1999/xlink" x="0px" y="0px" width="24px"
	 height="24px" viewBox="0 0 24 24" enable-background="new 0 0 24 24" xml:space="preserve">
<g id="Bounding_Boxes">
	<path fill="none" d="M0,0h24v24H0V0z"/>
</g>
<g id="Sharp">
	<g>
		<path d="M4.34,2.93L2.93,4.34l4.36,4.36L7,9H3v6h4l5,5v-6.59l4.18,4.18c-0.65,0.49-1.38,0.88-2.18,1.11v2.06
			c1.34-0.3,2.57-0.92,3.61-1.75l2.05,2.05l1.41-1.41L4.34,2.93z"/>
		<path d="M19,12c0,0.82-0.15,1.61-0.41,2.34l1.53,1.53C20.68,14.7,21,13.39,21,12c0-4.28-2.99-7.86-7-8.77v2.06
			C16.89,6.15,19,8.83,19,12z"/>
		<polygon points="12,4 10.12,5.88 12,7.76 		"/>
		<path d="M16.5,12c0-1.77-1.02-3.29-2.5-4.03v1.79l2.48,2.48C16.49,12.16,16.5,12.08,16.5,12z"/>
	</g>
</g>
</svg>
