<?xml version="1.0" encoding="UTF-8"?>
<svg width="59px" height="48px" viewBox="0 0 59 48" version="1.1" xmlns="http://www.w3.org/2000/svg" xmlns:xlink="http://www.w3.org/1999/xlink">
    <!-- Generator: Sketch 50.2 (55047) - http://www.bohemiancoding.com/sketch -->
    <title>Android/Adaptive App Icon/App Icon Front</title>
    <desc>Created with Sketch.</desc>
    <defs>
        <path d="M42.3196068,5.62501537e-15 C40.9888519,5.62501537e-15 39.9154358,1.17640251 39.9154358,2.63471178 L39.9154358,45.3714701 C39.9154358,46.829779 40.9888519,48 42.3196068,48 C43.6503585,47.9999968 44.7237746,46.829779 44.7237746,45.3714701 L44.7237746,2.63471178 C44.7237746,1.17640251 43.6503585,0 42.3196068,5.62501537e-15 Z M15.686416,2.44916884 C14.3556643,2.44916884 13.2822482,3.51229978 13.2822482,4.83030514 L13.2822482,43.4541938 C13.2822482,44.7721969 14.3556643,45.8291454 15.686416,45.8291454 C17.0171709,45.8291454 18.0905838,44.7721969 18.0905838,43.4541938 L18.0905838,4.83030514 C18.0905838,3.51229978 17.0171709,2.44916884 15.686416,2.44916884 Z M35.818983,9.23386125 C34.4882313,9.23386125 33.4210593,10.4769078 33.4210593,12.0170069 L33.4210593,36.0572075 C33.4210593,37.5973066 34.4882313,38.8341688 35.818983,38.8341688 C37.1497378,38.8341688 38.223154,37.5973066 38.223154,36.0572075 L38.223154,12.0170069 C38.223154,10.4769078 37.1497378,9.23386125 35.818983,9.23386125 Z M9.18579567,11.4727471 C7.85504175,11.4727471 6.78162755,12.53588 6.78162755,13.8538831 L6.78162755,34.4244283 C6.78162755,35.7424346 7.85504175,36.8055643 9.18579567,36.8055643 C10.516549,36.8055643 11.5899619,35.7424346 11.5899619,34.4244283 L11.5899619,13.8538831 C11.5899619,12.53588 10.516549,11.4727471 9.18579567,11.4727471 Z M49.1012321,13.9219176 C47.7704804,13.9219176 46.7033085,14.9850472 46.7033085,16.3030535 L46.7033085,31.7649765 C46.7033085,33.0829828 47.7704804,34.1461156 49.1012321,34.1461156 C50.431987,34.1461156 51.5053999,33.0829828 51.5053999,31.7649765 L51.5053999,16.3030535 C51.5053999,14.9850472 50.431987,13.9219176 49.1012321,13.9219176 Z M22.3244185,14.1322116 C20.9936668,14.1322116 19.9264948,15.1953413 19.9264948,16.5133476 L19.9264948,31.9752737 C19.9264948,33.2932768 20.9936668,34.3564097 22.3244185,34.3564097 C23.6551733,34.3564097 24.7285863,33.2932768 24.7285863,31.9752737 L24.7285863,16.5133476 C24.7285863,15.1953413 23.6551733,14.1322116 22.3244185,14.1322116 Z M2.26054241,18.1213893 C1.00806822,18.1213893 0,19.1198 0,20.3602752 L0,27.9180647 C0,29.1585399 1.00806822,30.1569506 2.26054241,30.1569506 L2.54779447,30.1569506 C3.80026866,30.1569506 4.80833688,29.1585399 4.80833688,27.9180647 L4.80833688,20.3602752 C4.80833688,19.1198 3.80026866,18.1213893 2.54779447,18.1213893 L2.26054241,18.1213893 Z M28.8312865,18.2636331 C27.6152195,18.2636331 26.639434,19.2300737 26.639434,20.4344877 L26.639434,27.7758114 C26.639434,28.9802254 27.6152195,29.946666 28.8312865,29.946666 L29.2434288,29.946666 C30.4594926,29.946666 31.4415254,28.9802254 31.4415254,27.7758114 L31.4415254,20.4344877 C31.4415254,19.2300737 30.4594926,18.2636331 29.2434288,18.2636331 L28.8312865,18.2636331 Z M55.751723,18.4739271 C54.5356592,18.4739271 53.5536263,19.4403646 53.5536263,20.6447817 L53.5536263,27.9861023 C53.5536263,29.1905163 54.5356592,30.1569569 55.751723,30.1569569 L56.1638685,30.1569569 C57.3799323,30.1569569 58.3557177,29.1905163 58.3557177,27.9861023 L58.3557177,20.6447817 C58.3557177,19.4403646 57.3799323,18.4739271 56.1638685,18.4739271 L55.751723,18.4739271 Z" id="path-1"></path>
    </defs>
    <g id="3-Review" stroke="none" stroke-width="1" fill="none" fill-rule="evenodd">
        <g id="No-Mask" transform="translate(-25.000000, -30.000000)">
            <g id="Icon">
                <g id="Android---Adaptive-App-Icon-Front">
                    <g id="Icon" transform="translate(25.000000, 30.000000)">
                        <g id="usi-soundboard">
                            <g id="✱-/-Color-/-Surface-/-Primary-or-Secondary">
                                <mask id="mask-2" fill="white">
                                    <use xlink:href="#path-1"></use>
                                </mask>
                                <use id="Mask" fill="#000000" fill-rule="nonzero" xlink:href="#path-1"></use>
                                <g mask="url(#mask-2)" id="✱-/-Color-/-Primary-/-Main">
                                    <g transform="translate(-3.977528, -7.890411)">
                                        <g>
                                            <g id="✱-/-Color-/-Primary-/-500" fill="#8BC34A">
                                                <rect id="Rectangle-13" x="0" y="0" width="66" height="66"></rect>
                                            </g>
                                        </g>
                                    </g>
                                </g>
                            </g>
                        </g>
                    </g>
                </g>
            </g>
        </g>
    </g>
</svg>